:SAMPLES-PER-SECOND 30
:FULLY-SPECIFIED
:DEGREES
527
root  -2.29199 40.9453 1.06933 -4.8797 -81.6432 5.2305
RightUpLeg  4.18617 -1.92122 -1.39137
RightLeg  -2.43329 -23.939 1.29339
RightFoot  -1.28111 -0.222549 2.47554
RightToes  -3.10678e-008 1.75238e-005 3.56266e-009
Spine  -3.53533 1.0524 -3.12748
Spine1  4.76411 0.0651241 5.72504
HEad  -2.10874 -12.3636 -2.75479
LeftShoulder1  1.85713 -3.26349 -21.038
LeftArm  4.76441 -64.2999 -77.0351
LeftForeArm  69.9713 -19.1632 -2.24885
LeftHand  -0.801329 -0.400716 16.1415
RightShoulder  4.7757 9.37759 31.1542
RightArm  -36.7186 -32.7045 47.6047
RightForeArm  76.6414 2.85336 -0.615553
RightHand  0.349124 3.62447 4.27385
LeftUpLeg  0.806682 0.103578 0.972631
LeftLeg  -0.688853 6.98716 -0.649042
LeftFoot  0.0196594 0.185215 -1.86377
LeftToes  4.76857e-008 1.46588e-008 1.31384e-009
528
root  -2.22893 40.954 1.0278 -5.04974 -82.3428 5.10104
RightUpLeg  4.32668 -1.77976 -1.24535
RightLeg  -2.46697 -23.3899 1.2228
RightFoot  -1.07359 -0.213211 2.32905
RightToes  -3.10678e-008 1.75238e-005 3.56266e-009
Spine  -4.06389 1.3678 -3.71882
Spine1  5.52649 0.297251 6.21223
HEad  -1.57018 -12.7092 -2.01694
LeftShoulder1  2.34937 -4.51126 -23.0469
LeftArm  1.0426 -56.5712 -71.7878
LeftForeArm  72.6025 -17.1797 -3.19702
LeftHand  -0.810385 -0.439287 16.2216
RightShoulder  4.49896 8.86714 30.4498
RightArm  -35.4476 -19.7425 45.3904
RightForeArm  77.7216 0.92241 -1.49868
RightHand  0.469151 3.26281 6.03094
LeftUpLeg  1.33779 0.319604 1.1617
LeftLeg  -1.15728 7.50041 -0.777178
LeftFoot  0.201043 0.204738 -2.03834
LeftToes  4.76857e-008 1.46588e-008 1.31384e-009
529
root  -2.16349 40.9634 1.00925 -5.05154 -83.7538 4.70895
RightUpLeg  4.5911 -1.62508 -1.08427
RightLeg  -2.70846 -22.1321 1.26243
RightFoot  -0.747367 -0.201257 2.14055
RightToes  -3.10678e-008 1.75238e-005 3.56266e-009
Spine  -4.41498 1.5735 -3.13998
Spine1  6.24611 0.632046 5.33335
HEad  -0.876864 -12.5453 -1.04855
LeftShoulder1  2.79588 -5.51655 -24.8219
LeftArm  -6.81093 -47.5408 -66.7163
LeftForeArm  79.4599 -14.2491 -3.61677
LeftHand  -0.872856 -0.952454 16.0782
RightShoulder  4.39808 8.74926 29.9612
RightArm  -33.8066 -4.68034 43.5878
RightForeArm  78.5866 -2.09065 -2.02551
RightHand  0.293248 3.15788 3.75958
LeftUpLeg  1.98351 0.558896 1.38399
LeftLeg  -1.49021 8.63655 -0.832178
LeftFoot  0.292308 0.220266 -2.18005
LeftToes  4.76857e-008 1.46588e-008 1.31384e-009
530
root  -2.11831 40.9653 1.01571 -5.32654 -85.599 4.56857
RightUpLeg  4.72069 -1.45149 -0.97021
RightLeg  -2.60474 -20.4661 1.07631
RightFoot  -0.5693 -0.194475 2.02049
RightToes  -3.10678e-008 1.75238e-005 3.56266e-009
Spine  -4.58893 1.61758 -2.54839
Spine1  6.73778 0.78021 4.58
HEad  -0.49576 -10.9366 -0.745908
LeftShoulder1  3.15129 -6.22438 -26.2849
LeftArm  -14.0504 -37.1204 -61.6275
LeftForeArm  85.2266 -10.463 -3.38629
LeftHand  -0.832225 -0.590023 16.2379
RightShoulder  4.10195 8.38746 28.5373
RightArm  -32.8731 11.0305 43.879
RightForeArm  78.8126 -4.03156 -2.64861
RightHand  0.281844 3.94921 3.2294
LeftUpLeg  2.69429 0.675111 1.46542
LeftLeg  -1.71065 10.3309 -0.791908
LeftFoot  0.270903 0.228405 -2.26335
LeftToes  4.76857e-008 1.46588e-008 1.31384e-009
531
root  -2.07694 40.9652 1.04169 -8.91971 -87.8454 7.9201
RightUpLeg  4.57844 -1.24244 -0.826922
RightLeg  -2.40717 -18.4418 0.885414
RightFoot  -0.389007 -0.192675 1.97718
RightToes  -3.10678e-008 1.75238e-005 3.56266e-009
Spine  -4.05846 1.57402 -1.10918
Spine1  6.36193 1.01689 2.88567
HEad  -0.280503 -9.2148 -0.394653
LeftShoulder1  3.37802 -6.57943 -27.4302
LeftArm  -19.6954 -25.5832 -57.7548
LeftForeArm  92.2856 -5.67119 -1.56107
LeftHand  -0.823611 -0.57333 16.1157
RightShoulder  3.7785 8.09179 26.5589
RightArm  -31.0425 25.7615 45.8604
RightForeArm  75.0337 -4.15486 -2.31485
RightHand  0.273434 3.74297 3.21731
LeftUpLeg  3.09029 0.756356 1.55002
LeftLeg  -1.55765 12.4809 -0.662978
LeftFoot  0.0569511 0.239154 -2.39604
LeftToes  4.76857e-008 1.46588e-008 1.31384e-009
